<svg xmlns="http://www.w3.org/2000/svg" xmlns:xlink="http://www.w3.org/1999/xlink" fill="white" version="1.1" x="0px" y="0px" viewBox="0 0 100 100" enable-background="new 0 0 100 100" xml:space="preserve"><g><path d="M50,4.124c-20.252,0-36.668,16.417-36.669,36.668c0,10.126,4.504,18.917,10.74,25.93L50,95.876l25.928-29.153   c6.235-7.014,10.741-15.804,10.741-25.931C86.669,20.541,70.251,4.124,50,4.124z M70.503,61.295   C65.256,66.542,58.006,69.788,50,69.788c-8.009,0-15.256-3.245-20.504-8.493c-5.247-5.247-8.493-12.497-8.493-20.503   C21.004,24.777,33.986,11.797,50,11.797c16.013,0,28.995,12.98,28.995,28.995C78.995,48.798,75.75,56.048,70.503,61.295z"/><path d="M69.893,25.469h-3.717v-0.875c0-0.573-0.468-1.043-1.041-1.043H35.832c-0.573,0-1.042,0.47-1.042,1.043v0.875h-3.717   c-0.726,0-1.314,0.589-1.314,1.314v5.523c0,0.726,0.589,1.314,1.314,1.314c0.727,0,1.314-0.589,1.314-1.314v-4.209h2.402v26.527   c0,0.574,0.469,1.043,1.042,1.043h0.991v2.033c0,0.401,0.328,0.729,0.729,0.729h1.825c0.401,0,0.729-0.328,0.729-0.729v-2.033   h20.762v2.033c0,0.401,0.328,0.729,0.73,0.729h1.823c0.402,0,0.73-0.328,0.73-0.729v-2.033h0.981c0.573,0,1.041-0.469,1.041-1.043   V28.098h2.401v4.209c0,0.726,0.589,1.314,1.315,1.314s1.314-0.589,1.314-1.314v-5.523C71.207,26.058,70.619,25.469,69.893,25.469z    M37.916,51.502c-0.499,0-0.904-0.406-0.904-0.904s0.405-0.905,0.904-0.905c0.498,0,0.904,0.407,0.904,0.905   S38.414,51.502,37.916,51.502z M41.792,52.025c-0.787,0-1.429-0.642-1.429-1.428c0-0.787,0.642-1.429,1.429-1.429   s1.429,0.642,1.429,1.429C43.221,51.384,42.579,52.025,41.792,52.025z M59.225,52.025c-0.786,0-1.427-0.642-1.427-1.428   c0-0.787,0.641-1.429,1.427-1.429c0.787,0,1.43,0.642,1.43,1.429C60.654,51.384,60.012,52.025,59.225,52.025z M63.102,51.502   c-0.498,0-0.904-0.406-0.904-0.904s0.406-0.905,0.904-0.905s0.904,0.407,0.904,0.905S63.6,51.502,63.102,51.502z M64.74,45.865   c0,0.574-0.426,1.043-0.947,1.043H37.174c-0.521,0-0.947-0.469-0.947-1.043V29.599c0-0.189,0.046-0.368,0.127-0.521   c0.165,0.311,0.472,0.521,0.82,0.521h26.619c0.35,0,0.655-0.21,0.819-0.521c0.08,0.152,0.128,0.331,0.128,0.521V45.865z"/></g></svg>